<?xml version="1.0" encoding="UTF-8"?>
<svg id="Object" xmlns="http://www.w3.org/2000/svg" version="1.1" viewBox="0 0 1122 1122">
  <defs>
    <style>
      .st0 {
        fill: #812124;
      }

      .st1 {
        fill: #65191a;
      }

      .st2 {
        fill: #faedd3;
      }

      .st3 {
        fill: #b5252b;
      }

      .st4 {
        fill: #ebb95c;
      }

      .st5 {
        fill: #000100;
      }

      .st6 {
        opacity: .1;
      }

      .st7 {
        fill: #fffce3;
      }

      .st8 {
        fill: #eec36b;
      }
    </style>
  </defs>
  <g>
    <path class="st2" d="M655.56,341.8c5.04.57,10.29-.24,15.15-2.63,13.15-6.47,18.41-22.05,11.74-34.8-5.94-11.36-19.34-16.63-31.49-13.08-.27-4.13-1.39-8.27-3.44-12.2-8.09-15.46-27.57-21.64-43.52-13.8-15.95,7.84-22.32,26.73-14.23,42.19,2.47,4.73,6.02,8.59,10.2,11.44-7.47,9.03-9.27,21.81-3.52,32.81,7.84,14.98,26.72,20.97,42.18,13.37,9.64-4.74,15.67-13.65,16.94-23.31Z"/>
    <path class="st8" d="M638.62,365.12c9.64-4.74,15.67-13.65,16.94-23.31,5.04.57,10.29-.24,15.15-2.63,7.88-3.88,12.92-11.03,14.27-18.88-3.04,3.52-6.85,6.52-11.34,8.73-9.77,4.8-20.73,4.87-30.11,1.11-2.41,9.57-8.94,18.1-18.71,22.9-8.38,4.12-17.64,4.76-26.03,2.48,8.82,12.16,25.75,16.52,39.83,9.6Z"/>
  </g>
  <g>
    <path class="st2" d="M565.12,316.32c2.47.07,5-.16,7.52-.71,16.12-3.53,26.24-19.01,22.61-34.58-3.39-14.54-17.56-24.01-32.55-22.33.23-2.42.08-4.91-.5-7.4-2.98-12.8-16.14-20.82-29.38-17.92-13.21,2.89-21.52,15.56-18.6,28.32-8.54,3.15-13.61,11.96-11.55,20.82,2.08,8.94,10.7,14.8,19.9,13.97-5.11,5.54-7.47,13.28-5.66,21.06,2.98,12.8,16.14,20.82,29.38,17.92,9.99-2.19,17.17-9.96,18.83-19.14ZM536.2,288.99c-.05,0-.11.02-.16.03.05-.07.1-.14.15-.21,0,.06,0,.12,0,.18Z"/>
    <path class="st8" d="M546.29,335.46c9.99-2.19,17.17-9.96,18.83-19.14,2.47.07,5-.16,7.52-.71,16.12-3.53,26.24-19.01,22.61-34.58-.8-3.42-2.2-6.56-4.06-9.34.16.53.31,1.07.44,1.62,3.3,14.18-5.92,28.29-20.6,31.5-5.84,1.28-11.65.63-16.76-1.49,2.79,12.97-5.69,25.76-19.11,28.71-1.53.34-3.06.52-4.58.58-.48.19-.96.38-1.45.56,5.06,2.66,11.09,3.62,17.16,2.3Z"/>
  </g>
  <g>
    <path class="st0" d="M801.33,416.18c.02-13.31-11.09-24.12-24.82-24.14-12-.02-22.01,8.21-24.36,19.16-1.68-11.71-12.04-20.73-24.58-20.74-13.73-.02-24.88,10.75-24.9,24.06,0,.25.01.5.02.75h-.04c.02-.46.02-.72.02-.75.02-13.1-10.92-23.37-24.43-23.39-13.51-.02-24.49,10.58-24.51,23.69,0,.13,0,.25,0,.38h-.03c0-.25.02-.5.02-.75.02-13.31-11.09-24.12-24.82-24.14-13.73-.02-24.88,10.75-24.9,24.06,0,.25.01.5.02.75h-.02c0-.23,0-.36,0-.38.02-13.1-10.92-23.74-24.43-23.76-13.52-.02-24.49,10.58-24.51,23.69,0,.13,0,.25,0,.38h-.03c0-.25.02-.5.02-.75.02-13.31-11.09-24.12-24.82-24.14-13.73-.02-24.88,10.75-24.9,24.06,0,.25.01.5.02.75h-.03c0-.13.01-.25.01-.38.02-13.1-10.92-23.74-24.43-23.76-13.52-.02-24.49,10.58-24.51,23.69,0,.02,0,.15.01.38h-.03c0-.25.02-.5.02-.75.02-13.31-11.09-24.12-24.82-24.14-13.73-.02-24.88,10.75-24.9,24.06,0,.25.01.5.02.75h-.03c0-.12.01-.25.01-.38.02-13.1-10.92-23.74-24.43-23.76-13.52-.02-24.49,10.58-24.51,23.69,0,1.75,26.79,411.48,32.61,500.53,0,0-.02,0-.02,0l.85,12.72c.18,2.77.28,4.23.28,4.23l41.95.06v-.14s41.95.06,41.95.06c0,.09,0,.14,0,.14l41.17.06v-.14s41.95.07,41.95.07v.14s41.95.07,41.95.07c0,0,0-.05,0-.14l41.95.07v.14s41.95.07,41.95.07c0,0,0-.05,0-.14l41.95.06v.14s41.17.06,41.17.06c0,0,0-.05,0-.14h.14s.02-.24.02-.24h.22l19.93-308.34s0,.02-.01.03c7.2-109.66,13.56-206.66,13.56-207.57Z"/>
    <polygon class="st1" points="769.41 932.05 737.51 960.62 770.98 444.75 801.32 419.19 769.41 932.05"/>
  </g>
  <g>
    <path class="st2" d="M668.59,366.35c-.85-5.66-3.37-11.15-7.6-15.72-11.45-12.39-31.1-13.43-43.88-2.33-11.38,9.89-13.47,26.08-5.7,38.26-4.71,1.54-9.18,4-13.11,7.42-15.5,13.46-16.8,36.56-2.91,51.58,13.89,15.02,37.71,16.29,53.21,2.82,4.74-4.12,8.15-9.14,10.2-14.56,12.72,5.43,28.08,3.55,39.1-6.03,15.02-13.05,16.28-35.43,2.82-49.99-8.4-9.08-20.54-12.97-32.13-11.45Z"/>
    <path class="st8" d="M700.72,377.8c-8.4-9.08-20.54-12.97-32.13-11.45-.85-5.66-3.37-11.15-7.6-15.72-6.87-7.43-16.67-10.77-26.18-9.87,5,2.25,9.62,5.5,13.54,9.73,8.51,9.2,11.88,21.12,10.34,32.49,11.82-.25,23.67,4.3,32.18,13.51,7.3,7.9,10.83,17.79,10.7,27.62,11.45-13.28,11.42-33.03-.85-46.3Z"/>
  </g>
  <g>
    <path class="st2" d="M539.43,477.85c5.67,1.58,11.87,1.61,17.91-.25,16.36-5.02,25.42-21.95,20.24-37.82-4.61-14.13-18.97-22.63-33.62-20.78.49-4.79.01-9.75-1.58-14.63-6.28-19.23-27.46-29.89-47.29-23.8-19.84,6.09-30.83,26.62-24.55,45.85,1.92,5.89,5.24,10.96,9.49,15.01-10.33,9-14.89,23.35-10.42,37.03,6.09,18.64,26.61,28.96,45.83,23.06,11.99-3.68,20.64-12.81,23.98-23.68Z"/>
    <path class="st8" d="M515.45,501.52c11.99-3.68,20.64-12.81,23.98-23.68,5.67,1.58,11.87,1.61,17.91-.25,9.81-3.01,16.99-10.3,20.05-19.07-4.18,3.49-9.13,6.24-14.72,7.96-12.15,3.73-24.75,1.81-34.79-4.23-4.63,10.55-13.79,19.15-25.94,22.88-10.43,3.2-21.18,2.24-30.37-1.91,7.77,15.58,26.36,23.68,43.88,18.3Z"/>
  </g>
  <g>
    <path class="st2" d="M432.68,381.09c.82-3.05,1.25-6.24,1.26-9.53.04-21.01-17.5-38.06-39.17-38.1-20.23-.03-36.9,14.79-39.05,33.85-3.13-.99-6.47-1.53-9.94-1.54-17.81-.03-32.26,13.94-32.29,31.21-.03,17.22,14.31,31.2,32.05,31.3,1.68,11.5,11.86,20.36,24.19,20.38,12.43.02,22.71-8.96,24.29-20.6,5.83,7.94,15.4,13.13,26.22,13.15,17.81.03,32.26-13.94,32.29-31.21.02-13.02-8.17-24.19-19.84-28.91ZM388.07,408.97c0,.07,0,.14,0,.21-.08-.09-.15-.17-.23-.25.08.01.16.03.24.04Z"/>
    <path class="st8" d="M452.52,409.99c.02-13.02-8.17-24.19-19.84-28.91.82-3.05,1.25-6.24,1.26-9.53.04-21.01-17.5-38.06-39.17-38.1-4.76,0-9.32.82-13.54,2.32.75-.04,1.51-.08,2.27-.07,19.74.03,35.71,15.57,35.68,34.7-.01,7.61-2.56,14.63-6.86,20.34,17.98.32,32.44,14.55,32.41,32.05,0,2-.2,3.95-.57,5.84.12.65.22,1.31.31,1.96,4.99-5.5,8.04-12.7,8.05-20.6Z"/>
  </g>
  <g>
    <path class="st2" d="M598.94,373.81c.82-3.05,1.25-6.24,1.26-9.53.03-21.01-17.5-38.06-39.17-38.1-20.23-.03-36.9,14.79-39.05,33.85-3.13-.99-6.47-1.53-9.94-1.54-17.81-.03-32.26,13.95-32.29,31.21-.03,17.22,14.31,31.2,32.05,31.3,1.68,11.5,11.86,20.36,24.19,20.38,12.43.02,22.71-8.96,24.29-20.6,5.83,7.94,15.4,13.13,26.22,13.14,17.81.03,32.26-13.94,32.29-31.21.02-13.02-8.17-24.19-19.84-28.91ZM554.33,401.7c0,.07,0,.14,0,.21-.08-.08-.15-.17-.23-.25.08.01.16.03.24.04Z"/>
    <path class="st8" d="M618.78,402.72c.02-13.02-8.17-24.19-19.84-28.91.82-3.05,1.25-6.24,1.26-9.53.03-21.01-17.5-38.06-39.17-38.1-4.76,0-9.32.82-13.54,2.32.75-.05,1.51-.08,2.27-.07,19.74.03,35.71,15.57,35.68,34.7-.01,7.61-2.56,14.63-6.86,20.34,17.98.32,32.44,14.55,32.41,32.05,0,2-.2,3.95-.57,5.84.12.65.22,1.31.31,1.96,4.99-5.5,8.04-12.7,8.05-20.6Z"/>
  </g>
  <g>
    <path class="st2" d="M505.15,310.2c1.41-2.46,2.53-5.12,3.31-7.97,4.91-18.16-6.29-36.74-25.02-41.5-17.49-4.45-35.35,4.73-41.64,20.74-2.48-1.54-5.24-2.74-8.24-3.5-15.39-3.91-31.14,5.01-35.18,19.93-4.03,14.88,5.12,30.11,20.44,34.07-1.22,10.31,5.52,20.19,16.18,22.91,10.75,2.73,21.72-2.79,25.79-12.51,3.2,8.14,10.26,14.72,19.62,17.1,15.39,3.91,31.14-5.01,35.18-19.93,3.04-11.25-1.45-22.7-10.44-29.33ZM460.09,324.57c-.02.06-.04.12-.05.18-.05-.09-.09-.18-.14-.27.07.03.13.06.2.09Z"/>
    <path class="st8" d="M515.59,339.53c3.04-11.25-1.45-22.7-10.44-29.33,1.41-2.46,2.53-5.12,3.31-7.97,4.91-18.16-6.29-36.74-25.02-41.5-4.11-1.05-8.25-1.33-12.25-.96.66.13,1.32.27,1.98.43,17.06,4.34,27.26,21.26,22.79,37.8-1.78,6.58-5.62,12.09-10.66,16.09,15.47,4.2,24.67,19.67,20.58,34.79-.47,1.73-1.1,3.37-1.85,4.93-.05.59-.11,1.18-.19,1.77,5.6-3.66,9.9-9.23,11.75-16.06Z"/>
  </g>
  <g>
    <path class="st2" d="M763,381.8c-1.8-6.42-6.14-12.18-12.57-15.74-12.86-7.11-29.23-2.78-36.56,9.69-4.85,8.23-4.54,17.95-.06,25.65-6.25,3.13-11.68,7.97-15.43,14.34-10.32,17.52-4.03,39.83,14.05,49.83,18.07,10,41.09,3.9,51.4-13.62,2.15-3.65,3.57-7.51,4.32-11.43,13.76,3.49,28.75-2.21,36.14-14.75,8.83-14.99,3.45-34.08-12.02-42.64-9.32-5.16-20.17-5.3-29.25-1.33Z"/>
    <path class="st8" d="M763,381.8c-1.8-6.42-6.14-12.18-12.57-15.74-9.32-5.16-20.5-4.29-28.73,1.33,6.71-1.59,14.03-.79,20.49,2.79,10.09,5.58,15.23,16.33,13.9,26.85,8.46-5.17,19.51-5.77,28.8-.62,13.42,7.42,18.08,23.98,10.43,36.99-.82,1.39-1.75,2.67-2.76,3.86,4.72-2.67,8.81-6.54,11.72-11.48,8.83-14.99,3.45-34.08-12.02-42.64-9.32-5.16-20.17-5.3-29.25-1.33Z"/>
  </g>
  <g>
    <path class="st2" d="M487.42,452.91c5.67,1.57,11.87,1.61,17.91-.25,16.36-5.02,25.42-21.95,20.24-37.82-4.61-14.13-18.97-22.63-33.62-20.78.49-4.79.01-9.75-1.58-14.63-6.28-19.23-27.46-29.89-47.3-23.8-19.84,6.09-30.83,26.62-24.55,45.85,1.92,5.88,5.24,10.96,9.49,15-10.33,9-14.89,23.35-10.42,37.03,6.09,18.64,26.61,28.96,45.83,23.06,11.99-3.68,20.64-12.81,23.98-23.67Z"/>
    <path class="st8" d="M463.44,476.59c11.99-3.68,20.64-12.81,23.98-23.67,5.67,1.57,11.87,1.61,17.91-.25,9.81-3.01,16.99-10.3,20.05-19.07-4.18,3.49-9.13,6.24-14.72,7.96-12.15,3.73-24.75,1.81-34.79-4.23-4.63,10.55-13.79,19.15-25.94,22.88-10.43,3.2-21.18,2.24-30.37-1.91,7.77,15.58,26.36,23.68,43.88,18.3Z"/>
  </g>
  <g class="st6">
    <path class="st5" d="M776.36,436.44c.02-13.31-11.09-24.12-24.82-24.14-12-.02-22.01,8.21-24.36,19.16-1.68-11.71-12.03-20.73-24.58-20.75-13.73-.02-24.88,10.75-24.9,24.06,0,.25.01.5.02.75h-.04c.01-.45.02-.72.02-.75.02-13.1-10.92-23.36-24.43-23.39-13.52-.02-24.49,10.58-24.51,23.69,0,.13,0,.25,0,.38h-.03c0-.25.02-.5.02-.75.02-13.31-11.09-24.12-24.82-24.14-13.73-.02-24.88,10.75-24.9,24.06,0,.25.01.5.02.75h-.02c0-.22,0-.36,0-.38.02-13.1-10.92-23.74-24.43-23.76-13.52-.02-24.49,10.59-24.51,23.69,0,.13,0,.25,0,.38h-.03c0-.25.02-.5.02-.75.02-13.31-11.09-24.12-24.82-24.14-13.73-.02-24.88,10.75-24.9,24.06,0,.25.01.5.02.75h-.03c0-.12.01-.25.01-.38.02-13.1-10.92-23.74-24.43-23.76-13.52-.02-24.49,10.58-24.51,23.69,0,.02,0,.16.01.38h-.03c0-.25.02-.5.02-.75.02-13.31-11.09-24.12-24.82-24.14-13.73-.02-24.88,10.75-24.9,24.06,0,.25.01.5.02.75h-.03c0-.13.01-.25.01-.38.02-13.1-10.92-23.74-24.43-23.76-13.52-.02-24.49,10.58-24.51,23.69,0,1.75,26.79,411.49,32.61,500.53-.01,0-.02,0-.03,0l.86,12.72c.18,2.76.28,4.23.28,4.23l41.95.06v-.14s41.95.06,41.95.06c0,.08,0,.14,0,.14l41.17.06v-.14s41.95.06,41.95.06v.14s41.95.06,41.95.06c0,0,0-.05,0-.14l41.95.06v.14s41.95.06,41.95.06c0,0,0-.05,0-.14l41.95.07v.14s41.17.06,41.17.06c0,0,0-.05,0-.14h.14l.02-.24h.22l19.93-308.34s0,.02-.01.03c7.2-109.66,13.56-206.66,13.56-207.57Z"/>
  </g>
  <g>
    <path class="st7" d="M722.02,443.92c0-.25.02-.5.02-.75.02-13.31-11.09-24.12-24.82-24.14-13.73-.02-24.88,10.75-24.9,24.06,0,.25.01.5.02.75l-48.98-.08c0-.25.02-.5.02-.75.02-13.31-11.09-24.12-24.82-24.14-13.73-.02-24.88,10.75-24.9,24.06,0,.25.01.5.02.75l-48.98-.08c0-.25.02-.5.02-.75.02-13.31-11.09-24.12-24.82-24.14-13.73-.02-24.88,10.75-24.9,24.06,0,.25.01.5.02.75l-48.98-.08c0-.25.02-.5.02-.75.02-13.31-11.09-24.12-24.82-24.14-13.73-.02-24.88,10.75-24.9,24.06,0,.25.01.5.02.75l-48.32-.07,33.92,516.97,375.31.58,33.13-516.86-48.38-.07Z"/>
    <g>
      <path class="st3" d="M376.31,443.77c0-.25.02-.5.02-.75.02-13.1-10.92-23.74-24.43-23.76-13.52-.02-24.49,10.58-24.51,23.69,0,1.97,33.72,517.48,33.72,517.48l41.95.06-26.75-516.72Z"/>
      <path class="st3" d="M474.98,443.92c0-.25.02-.5.02-.75.02-13.1-10.92-23.74-24.43-23.76-13.51-.02-24.49,10.59-24.51,23.69,0,1.71,18.96,517.46,18.96,517.46l41.17.06-11.21-516.69Z"/>
      <path class="st3" d="M549.23,419.56c-13.51-.02-24.49,10.58-24.51,23.69,0,.25.01.5.02.75l3.41,516.68,41.95.06s3.56-515.96,3.57-517.42c.02-13.1-10.92-23.74-24.43-23.76Z"/>
      <path class="st3" d="M647.89,419.71c-13.52-.02-24.49,10.58-24.51,23.69,0,.25.01.5.02.75l-11.35,516.66,41.95.06s18.32-516.1,18.33-517.78c.02-13.1-10.92-23.37-24.43-23.39Z"/>
      <path class="st3" d="M770.98,444.75c.02-13.31-11.09-24.12-24.82-24.14-13.6-.02-24.66,10.55-24.89,23.69l-25.33,516.64,41.17.06s33.86-514.15,33.86-516.25Z"/>
    </g>
    <g class="st6">
      <path class="st5" d="M704.57,697.34c-.1,59.69-69.57,107.97-155.18,107.84-85.61-.13-154.92-48.63-154.83-108.32.1-59.69,69.57-107.97,155.18-107.84,85.61.13,154.93,48.63,154.83,108.32Z"/>
    </g>
    <path class="st4" d="M703.66,690.56c-.1,59.69-69.57,107.97-155.18,107.84-85.61-.13-154.92-48.63-154.83-108.32.1-59.69,69.57-107.97,155.18-107.84,85.61.13,154.92,48.63,154.83,108.32Z"/>
    <g class="st6">
      <path class="st5" d="M757.43,652.28s-87.95,245.98-397.46,291.19l1.12,16.57,376.41.58,19.93-308.34Z"/>
    </g>
  </g>
  <g>
    <path class="st2" d="M706.71,370.98c1.07,4.82,3.55,9.4,7.46,13.11,10.58,10.03,27.55,9.84,37.89-.42,9.21-9.14,10.05-23.18,2.65-33.23,3.96-1.58,7.66-3.95,10.84-7.11,12.54-12.44,12.3-32.38-.53-44.54-12.83-12.16-33.4-11.93-45.94.52-3.84,3.81-6.47,8.32-7.92,13.09-11.26-3.96-24.36-1.5-33.28,7.35-12.15,12.06-11.92,31.38.51,43.16,7.76,7.35,18.43,10.02,28.31,8.07Z"/>
    <path class="st8" d="M678.4,362.91c7.76,7.35,18.43,10.02,28.31,8.07,1.07,4.82,3.55,9.4,7.46,13.11,6.34,6.01,14.98,8.34,23.11,7.04-4.43-1.66-8.6-4.2-12.22-7.63-7.86-7.45-11.47-17.52-10.8-27.37-10.15.87-20.62-2.39-28.48-9.84-6.74-6.39-10.36-14.71-10.83-23.17-9.07,12.05-7.88,29.05,3.45,39.78Z"/>
  </g>
  <g>
    <path class="st2" d="M661.79,252.66c1.25,4.15,3.74,8.01,7.41,11.01,9.93,8.12,24.77,6.89,33.14-2.74,7.46-8.58,7.26-20.93.11-29.26,3.36-1.63,6.44-3.94,9.02-6.9,10.15-11.68,8.62-29.12-3.43-38.96-12.04-9.84-30.04-8.35-40.19,3.32-3.11,3.57-5.11,7.69-6.06,11.96-10.12-2.77-21.43.21-28.65,8.51-9.84,11.32-8.35,28.22,3.32,37.76,7.28,5.95,16.8,7.62,25.33,5.3Z"/>
    <path class="st8" d="M636.46,247.36c7.28,5.95,16.8,7.62,25.33,5.3,1.25,4.15,3.74,8.01,7.41,11.01,5.95,4.86,13.67,6.37,20.7,4.72-3.99-1.18-7.81-3.14-11.21-5.91-7.38-6.03-11.2-14.62-11.28-23.29-8.83,1.4-18.21-.81-25.59-6.83-6.33-5.17-10.05-12.23-11.03-19.61-7.14,11.12-4.96,25.93,5.67,34.62Z"/>
  </g>
  <g>
    <path class="st2" d="M413.99,244.53c2.47.07,5-.15,7.52-.71,16.12-3.53,26.24-19.01,22.61-34.58-3.39-14.54-17.56-24.01-32.55-22.33.23-2.42.08-4.91-.5-7.4-2.98-12.8-16.13-20.82-29.38-17.92-13.21,2.89-21.52,15.56-18.6,28.32-8.54,3.15-13.61,11.96-11.55,20.82,2.08,8.94,10.7,14.8,19.89,13.97-5.1,5.53-7.47,13.28-5.66,21.06,2.98,12.8,16.14,20.82,29.38,17.92,9.99-2.19,17.17-9.96,18.83-19.14ZM385.08,217.2c-.05.01-.11.02-.16.03.05-.07.1-.14.15-.21,0,.06,0,.12,0,.18Z"/>
    <path class="st8" d="M395.17,263.68c9.99-2.19,17.17-9.96,18.83-19.14,2.47.07,5-.15,7.52-.71,16.12-3.53,26.24-19.01,22.61-34.58-.8-3.42-2.2-6.56-4.06-9.34.16.53.31,1.07.44,1.62,3.3,14.18-5.92,28.29-20.6,31.5-5.84,1.28-11.65.64-16.76-1.49,2.79,12.97-5.69,25.76-19.11,28.71-1.53.34-3.06.52-4.58.58-.48.19-.96.38-1.45.55,5.06,2.66,11.1,3.62,17.16,2.3Z"/>
  </g>
</svg>
